<?xml version="1.0" encoding="utf-8"?>
<!-- Generator: Adobe Illustrator 23.0.1, SVG Export Plug-In . SVG Version: 6.00 Build 0)  -->
<svg version="1.1" id="Layer_1" xmlns="http://www.w3.org/2000/svg" xmlns:xlink="http://www.w3.org/1999/xlink" x="0px" y="0px"
	 viewBox="0 0 1080 1080" style="enable-background:new 0 0 1080 1080;" xml:space="preserve">
<style type="text/css">
	.st0{fill:#FFFFFF;}
</style>
<g>
	<path class="st0" d="M540.03,74C282.12,74,73.05,283.07,73.05,540.97c0,257.9,209.07,466.97,466.97,466.97
		c257.9,0,466.97-209.07,466.97-466.97C1007,283.07,797.93,74,540.03,74z M537.97,946.07c-224.86,0-407.15-182.29-407.15-407.15
		c0-224.87,182.29-407.15,407.15-407.15c224.87,0,407.15,182.29,407.15,407.15C945.12,763.78,762.83,946.07,537.97,946.07z"/>
	<path class="st0" d="M825.45,555.63l-3.07-6.16c-0.05-0.09-0.11-0.18-0.17-0.26c0.03,0.03,0.06,0.06,0.09,0.1l-82.72-165.87
		l-1.74-3.5c-4.86-8.59-13.98-14.46-24.56-14.46c-10.54,0-19.62,5.82-24.5,14.36l-1.81,3.63l-119.64,239.9L447.68,383.44l-1.74-3.5
		c-4.86-8.59-13.98-14.46-24.56-14.46c-10.54,0-19.62,5.82-24.5,14.36l-1.81,3.63L251.9,670.53l-0.65,1.31
		c-0.01,0.02-0.01,0.04-0.02,0.06c-1.91,3.78-3.1,7.98-3.1,12.51c0,15.64,12.68,28.33,28.33,28.33c11.99,0,22.18-7.47,26.32-18
		L421.37,456.9l118.61,237.84c4.14,10.52,14.33,17.99,26.31,17.99c0.35,0,0.68-0.09,1.03-0.1c0.35,0.01,0.68,0.1,1.03,0.1
		c11.99,0,22.18-7.47,26.32-18L713.28,456.9l59.02,118.35l2.79,5.6c2.67,5.36,6.67,10.11,11.97,12.89c2.77,1.45,5.8,2.46,9,2.94
		c9.88,1.47,19.55-3.38,25.96-11.04c0.1-0.12,0.2-0.24,0.29-0.35C829.17,576.94,830.27,565.29,825.45,555.63z M821.29,548.23
		c-0.38-0.42-0.76-0.84-1.17-1.24C820.54,547.39,820.91,547.82,821.29,548.23z M819.03,546.04c-0.4-0.35-0.79-0.72-1.21-1.05
		C818.24,545.32,818.62,545.69,819.03,546.04z M816.53,544.09c-0.41-0.29-0.81-0.59-1.23-0.86
		C815.72,543.5,816.12,543.8,816.53,544.09z M813.83,542.42c-0.41-0.23-0.81-0.47-1.24-0.68
		C813.02,541.95,813.42,542.2,813.83,542.42z M810.92,541.04c-0.4-0.16-0.78-0.35-1.19-0.49
		C810.14,540.69,810.52,540.88,810.92,541.04z M807.89,540.01c-0.4-0.11-0.78-0.25-1.18-0.34
		C807.11,539.76,807.49,539.9,807.89,540.01z M804.71,539.32c-0.39-0.06-0.76-0.15-1.15-0.2
		C803.95,539.17,804.32,539.26,804.71,539.32z"/>
</g>
</svg>
