<svg id="Layer_1" data-name="Layer 1" xmlns="http://www.w3.org/2000/svg" viewBox="0 0 886.26 225.14"><defs><style>.cls-1{fill:#605aa6;}</style></defs><path class="cls-1" d="M324.64,102.17q5.22,5.56,5.22,15.51v27.91a5,5,0,0,1-1.36,3.57,5.11,5.11,0,0,1-8.61-3.22V117.68q0-6-3-9a10.53,10.53,0,0,0-7.95-3.08,10.86,10.86,0,0,0-8.34,3.52,12.6,12.6,0,0,0-3.28,9v27.51A5,5,0,0,1,296,149.2a5.26,5.26,0,0,1-7.17,0,4.86,4.86,0,0,1-1.42-3.57v-27.9q0-6-3-9a10.54,10.54,0,0,0-7.95-3.07,11,11,0,0,0-8.44,3.51,12.66,12.66,0,0,0-3.27,9v27.52a5,5,0,0,1-1.36,3.56,5.11,5.11,0,0,1-8.61-3.22V102.15a4.75,4.75,0,0,1,1.41-3.6,4.93,4.93,0,0,1,3.57-1.37,4.74,4.74,0,0,1,5,4.47V102a17.7,17.7,0,0,1,6-4,20.24,20.24,0,0,1,7.61-1.42,19.61,19.61,0,0,1,8.93,2,17.24,17.24,0,0,1,6.55,5.7,20.06,20.06,0,0,1,7.32-5.65,22.62,22.62,0,0,1,9.75-2.05Q319.43,96.62,324.64,102.17Z"/><path class="cls-1" d="M393,126a4.47,4.47,0,0,1-3.22,1.21H352.68a17.2,17.2,0,0,0,6.2,11,19.84,19.84,0,0,0,18.63,3.12,18.31,18.31,0,0,0,5.22-2.63,5,5,0,0,1,3.22-1.07,4.13,4.13,0,0,1,2.93,1,4.23,4.23,0,0,1,1.76,3.31,3.51,3.51,0,0,1-1.57,2.93,27.14,27.14,0,0,1-8.24,4.3,29.75,29.75,0,0,1-23.76-1.81,25.29,25.29,0,0,1-9.91-9.61,27.34,27.34,0,0,1-3.56-14,28.92,28.92,0,0,1,3.36-14,24.45,24.45,0,0,1,9.37-9.66,26.92,26.92,0,0,1,13.61-3.47,24.58,24.58,0,0,1,13,3.32,21.89,21.89,0,0,1,8.37,9.33A30.56,30.56,0,0,1,394.24,123,4,4,0,0,1,393,126ZM358.4,109a17.53,17.53,0,0,0-5.59,10.42H385.3A17.29,17.29,0,0,0,380.42,109,14.32,14.32,0,0,0,370,105.1q-7.17,0-11.58,3.9Z"/><path class="cls-1" d="M454.65,75.63A4.89,4.89,0,0,1,456,79.24v44.5a27.24,27.24,0,0,1-3.56,13.8,26.3,26.3,0,0,1-23.27,13.32,26.92,26.92,0,0,1-13.72-3.56,25.48,25.48,0,0,1-9.7-9.76,27.53,27.53,0,0,1-3.52-13.8,29.09,29.09,0,0,1,3.27-13.81,24.38,24.38,0,0,1,40.57-4.35V79.24a4.78,4.78,0,0,1,1.41-3.61,4.93,4.93,0,0,1,3.57-1.37A4.87,4.87,0,0,1,454.65,75.63Zm-16.63,64a16.68,16.68,0,0,0,6.19-6.58,19.71,19.71,0,0,0,2.24-9.37,19.26,19.26,0,0,0-2.24-9.32,16.85,16.85,0,0,0-6.19-6.54,17.44,17.44,0,0,0-17.66,0,17.15,17.15,0,0,0-6.25,6.54,18.74,18.74,0,0,0-2.29,9.32,19.14,19.14,0,0,0,2.29,9.37,17,17,0,0,0,6.25,6.58,17.44,17.44,0,0,0,17.66,0Z"/><path class="cls-1" d="M475,86.51a6.35,6.35,0,1,1,4.54,1.9A6.22,6.22,0,0,1,475,86.51Zm1,62.54a4.83,4.83,0,0,1-1.41-3.56V102.07A4.78,4.78,0,0,1,476,98.46a4.93,4.93,0,0,1,3.57-1.37,4.69,4.69,0,0,1,5,4.36h0v44.06a5,5,0,0,1-1.36,3.56,5.25,5.25,0,0,1-7.18,0Z"/><path class="cls-1" d="M540.86,100.3a26.2,26.2,0,0,1,9.66,9.75,27.27,27.27,0,0,1,3.56,13.81v21.76a5,5,0,1,1-10,1,5.57,5.57,0,0,1,0-1V142a24.38,24.38,0,0,1-40.57-4.34,29.21,29.21,0,0,1-3.27-13.81A27.58,27.58,0,0,1,503.81,110a25.61,25.61,0,0,1,9.71-9.75,27,27,0,0,1,13.71-3.57A26.54,26.54,0,0,1,540.86,100.3Zm-4.78,39.41a16.85,16.85,0,0,0,6.19-6.54,19.26,19.26,0,0,0,2.24-9.32,19.71,19.71,0,0,0-2.24-9.37,17,17,0,0,0-6.19-6.58,17.44,17.44,0,0,0-17.66,0,17,17,0,0,0-6.25,6.58,20.23,20.23,0,0,0,0,18.69,17.15,17.15,0,0,0,6.25,6.54,17.44,17.44,0,0,0,17.66,0Z"/><path class="cls-1" d="M667.06,99.24q5.22,5.55,5.22,15.51v27.91a5,5,0,0,1-1.36,3.56,4.78,4.78,0,0,1-3.61,1.42,4.84,4.84,0,0,1-5-4.67V114.75q0-5.94-3-9a10.57,10.57,0,0,0-8-3.08,10.86,10.86,0,0,0-8.34,3.52,12.66,12.66,0,0,0-3.27,9V142.7a4.93,4.93,0,0,1-1.37,3.57,5.26,5.26,0,0,1-7.17,0,4.85,4.85,0,0,1-1.35-3.57V114.8q0-6-3-9a10.57,10.57,0,0,0-8-3.08,11,11,0,0,0-8.44,3.52,12.66,12.66,0,0,0-3.27,9v27.52a5,5,0,0,1-1.36,3.56,4.78,4.78,0,0,1-3.61,1.41,4.84,4.84,0,0,1-5-4.67V99.22a4.82,4.82,0,0,1,1.42-3.61,5,5,0,0,1,3.56-1.36,4.74,4.74,0,0,1,5,4.47v0a1.41,1.41,0,0,1,0,.29,17.92,17.92,0,0,1,6.06-3.94,20.18,20.18,0,0,1,7.6-1.42,19.61,19.61,0,0,1,8.93,2,17.14,17.14,0,0,1,6.48,5.71,20.25,20.25,0,0,1,7.32-5.65,22.62,22.62,0,0,1,9.75-2Q661.82,93.68,667.06,99.24Z"/><path class="cls-1" d="M735.41,123.1a4.48,4.48,0,0,1-3.23,1.21H695.1a17.24,17.24,0,0,0,6.2,11,19.84,19.84,0,0,0,18.63,3.12,18.31,18.31,0,0,0,5.22-2.63,5.1,5.1,0,0,1,3.23-1.08,4.22,4.22,0,0,1,2.93,1,4.28,4.28,0,0,1,1.75,3.32A3.54,3.54,0,0,1,731.5,142a27.08,27.08,0,0,1-8.25,4.3,29.79,29.79,0,0,1-23.76-1.8,25.29,25.29,0,0,1-9.91-9.61,27.38,27.38,0,0,1-3.56-14,28.81,28.81,0,0,1,3.37-14,24.3,24.3,0,0,1,9.36-9.66,26.69,26.69,0,0,1,13.61-3.47,24.58,24.58,0,0,1,13,3.32,21.85,21.85,0,0,1,8.39,9.27A30.49,30.49,0,0,1,736.68,120,4,4,0,0,1,735.41,123.1Zm-34.6-17a17.57,17.57,0,0,0-5.6,10.45h32.48a17.32,17.32,0,0,0-4.88-10.48,14.32,14.32,0,0,0-10.44-3.9q-7.11,0-11.56,3.9Z"/><path class="cls-1" d="M775.07,139.15a5.12,5.12,0,0,1,1.21,3.51,4.42,4.42,0,0,1-1.61,3.52,6.16,6.16,0,0,1-4.14,1.36h-1.72a16,16,0,0,1-8.73-2.48,17.35,17.35,0,0,1-6.27-6.76,20.38,20.38,0,0,1-2.24-9.66v-24.1h-4.46a4.73,4.73,0,0,1-3.31-1.17,3.83,3.83,0,0,1-1.28-2.93,4,4,0,0,1,1.29-3.14,4.73,4.73,0,0,1,3.31-1.17h4.49v-14A4.82,4.82,0,0,1,753,78.56a4.74,4.74,0,0,1,3.51-1.37,4.68,4.68,0,0,1,4.88,4.47,2.94,2.94,0,0,1,0,.42v14h8.3A4.64,4.64,0,0,1,773,97.3a4,4,0,0,1,1.28,3.12,3.83,3.83,0,0,1-1.28,2.93,4.73,4.73,0,0,1-3.31,1.17h-8.3v24.1a10,10,0,0,0,2.15,6.54,6.55,6.55,0,0,0,5.27,2.63h3.32A3.84,3.84,0,0,1,775.07,139.15Z"/><path class="cls-1" d="M835.13,123.1a4.48,4.48,0,0,1-3.23,1.21H794.81a17.24,17.24,0,0,0,6.2,11,19.84,19.84,0,0,0,18.63,3.12,18.31,18.31,0,0,0,5.22-2.63,5.1,5.1,0,0,1,3.23-1.08,4.22,4.22,0,0,1,2.93,1,4.31,4.31,0,0,1,1.75,3.32,3.54,3.54,0,0,1-1.56,2.93,27.08,27.08,0,0,1-8.25,4.3,29.79,29.79,0,0,1-23.76-1.8,25.29,25.29,0,0,1-9.91-9.61,27.38,27.38,0,0,1-3.56-14,28.81,28.81,0,0,1,3.37-14,24.3,24.3,0,0,1,9.36-9.66,26.72,26.72,0,0,1,13.61-3.47,24.58,24.58,0,0,1,13,3.32,21.85,21.85,0,0,1,8.39,9.27A30.49,30.49,0,0,1,836.39,120,4,4,0,0,1,835.13,123.1Zm-34.59-17a17.45,17.45,0,0,0-5.61,10.45h32.49a17.36,17.36,0,0,0-4.89-10.45,14.32,14.32,0,0,0-10.44-3.9q-7.11,0-11.55,3.87Z"/><path class="cls-1" d="M883.33,95.14q2.92,1.56,2.93,3.9a3.37,3.37,0,0,1-.1,1,3.76,3.76,0,0,1-3.9,3.12,8,8,0,0,1-1.46-.2,38.53,38.53,0,0,0-6.34-.67q-7,0-11.32,3.22a10.27,10.27,0,0,0-4.29,8.68v28.49a5,5,0,0,1-1.22,3.61,4.8,4.8,0,0,1-3.66,1.27,5,5,0,0,1-3.61-1.21,4.88,4.88,0,0,1-1.27-3.66V99.06A4.43,4.43,0,0,1,853,94.18h0a5,5,0,0,1,1,0c3.26,0,4.88,1.62,4.88,4.88v1.85a20.85,20.85,0,0,1,7.22-5.36,21.82,21.82,0,0,1,9.18-2A17.16,17.16,0,0,1,883.33,95.14Z"/><path class="cls-1" d="M112.58,0A112.57,112.57,0,1,0,225.14,112.58h0A112.55,112.55,0,0,0,112.62,0h0Zm-.5,210.22a98.15,98.15,0,1,1,98.15-98.15h0a98.17,98.17,0,0,1-98.15,98.15Z"/><path class="cls-1" d="M181.38,116.1l-.74-1.49v-.06h0l-19.93-40-.42-.85a6.78,6.78,0,0,0-11.83,0l-.43.87L119.19,132.4,90.35,74.57l-.42-.84a6.78,6.78,0,0,0-11.83,0l-.43.87L43.16,143.8l-.16.32h0a6.69,6.69,0,0,0-.75,3,6.82,6.82,0,0,0,13.17,2.49L84,92.3l28.58,57.34a6.85,6.85,0,0,0,6.35,4.33h.49a6.81,6.81,0,0,0,6.34-4.33L154.33,92.3l14.22,28.54.67,1.35a6.57,6.57,0,0,0,5.06,3.81,7,7,0,0,0,6.26-2.66l.07-.09A6.59,6.59,0,0,0,181.38,116.1Zm-1-1.78-.29-.3a3.83,3.83,0,0,1,.29.28Zm-.55-.53a3.47,3.47,0,0,0-.29-.25l.27.25Zm-.6-.47-.3-.21.3.19Zm-.65-.41-.3-.16Zm-.7-.33-.28-.12Zm-.73-.24a1.38,1.38,0,0,0-.29-.08,1.41,1.41,0,0,1,.29,0Zm-.77-.17-.28,0Z"/></svg>